Coordinates
version=1
nRows=8
nColumns=33
inDegrees=yes

Units are S.I. units (second, meters, Newtons, ...)
Angles are in degrees.

endheader
time	ground_thorax_rot_x	ground_thorax_rot_y	ground_thorax_rot_z	ground_thorax_tx	ground_thorax_ty	ground_thorax_tz	clav_prot_r	clav_elev_r	scapula_abduction_r	scapula_elevation_r	scapula_upward_rot_r	scapula_winging_r	shoulder_elv_r	plane_of_elev_r	axial_rot_r	elbow_flexion_r	pro_sup_r	wrist_flex_r	wrist_dev_r	clav_prot_l	clav_elev_l	scapula_abduction_l	scapula_elevation_l	scapula_upward_rot_l	scapula_winging_l	shoulder_elv_l	plane_of_elev_l	axial_rot_l	elbow_flexion_l	pro_sup_l	wrist_flex_l	wrist_dev_l
     11.72000000	     32.78850113	     26.20921731	     31.19339170	    -94.24636964	    840.40255285	    -35.99809052	     12.34504626	     34.05700496	     25.13840373	     45.00000000	    -45.00000000	  -3689.79284706	  -2626.00795695	    158.98514378	     23.03775819	   1798.74853362	    156.30113602	     12.85574521	     14.99071156	     -7.26085713	    -45.00000000	    -39.25985867	     45.00000000	    -45.00000000	  -4933.35222461	   -641.64948218	     24.64229897	     23.14197816	   1070.17676018	     38.60920498	     13.76216892	    -18.94369702
     11.73000000	     32.88557264	     26.01684383	     31.01323217	    -95.35296901	    842.49248322	    -36.22856774	     12.38681480	     34.13504841	     25.37262687	     45.00000000	    -45.00000000	  -3689.99379295	  -2626.12022988	    158.93343435	     22.74412797	   1798.72223924	    155.82757538	     12.91564165	     14.95706866	     -7.38233299	    -45.00000000	    -39.33696174	     45.00000000	    -45.00000000	  -4933.36240330	   -641.56015850	     24.56825681	     23.32954082	   1070.28897707	     38.58107564	     13.70086835	    -19.17587019
     11.74000000	     32.86782680	     25.93043306	     30.97037768	    -96.35833095	    844.48795291	    -36.45980990	     12.35164840	     34.04151958	     25.33028020	     45.00000000	    -45.00000000	  -3690.04904774	  -2626.06406278	    158.90646924	     22.43934273	   1798.59308178	    155.40174494	     12.99011644	     14.93855858	     -7.10408142	    -45.00000000	    -39.47464484	     45.00000000	    -45.00000000	  -4933.25009685	   -641.52145490	     24.68050684	     23.53785067	   1070.35715286	     38.62795417	     13.65920539	    -19.35232826
     11.75000000	     33.00157623	     25.63691493	     30.80338871	    -97.26263304	    846.38000098	    -36.68768387	     12.37518478	     34.12150174	     25.71346863	     45.00000000	    -45.00000000	  -3690.24511062	  -2626.18143250	    158.86002289	     22.08722010	   1798.54803640	    155.05751100	     13.08949113	     14.92276400	     -7.28634717	    -45.00000000	    -39.42936856	     45.00000000	    -45.00000000	  -4933.32391569	   -641.44913638	     24.59874465	     23.71499981	   1070.48060179	     38.68504479	     13.59562874	    -19.64130528
     11.76000000	     32.92892713	     25.60745620	     30.80732217	    -98.06988417	    848.16088305	    -36.90877047	     12.28823916	     33.98959520	     25.59027886	     45.00000000	    -45.00000000	  -3690.21376667	  -2626.09589747	    158.83053760	     21.75074038	   1798.44574082	    154.78110473	     13.17331352	     14.91697977	     -6.82735417	    -45.00000000	    -39.67206741	     45.00000000	    -45.00000000	  -4933.12648873	   -641.41903767	     24.77711379	     23.92742293	   1070.46935531	     38.83391116	     13.55868495	    -19.79361180
     11.77000000	     32.87775432	     25.55822905	     30.82390946	    -98.78263031	    849.81055910	    -37.11890966	     12.26723338	     33.94303044	     25.52452519	     45.00000000	    -45.00000000	  -3690.25371621	  -2626.05592641	    158.74530778	     21.42233350	   1798.35720796	    154.56860202	     13.26884791	     14.91066753	     -6.65779689	    -45.00000000	    -39.83019433	     45.00000000	    -45.00000000	  -4933.04536591	   -641.38622716	     24.82902499	     24.06085833	   1070.51212898	     39.02148722	     13.50877201	    -19.98794392
     11.78000000	     32.90224138	     25.39556656	     30.75883382	    -99.40958220	    851.31352479	    -37.31636657	     12.23306697	     33.95038090	     25.65284383	     45.00000000	    -45.00000000	  -3690.32567317	  -2626.10501210	    158.67488779	     21.07537975	   1798.30478610	    154.43482111	     13.39927166	     14.91036149	     -6.55805386	    -45.00000000	    -39.88520794	     45.00000000	    -45.00000000	  -4932.99550154	   -641.33944426	     24.86836470	     24.22969927	   1070.53023444	     39.22578728	     13.46319918	    -20.23722428
     11.79000000	     32.82790707	     25.37219862	     30.80404340	    -99.96009143	    852.65046649	    -37.49932458	     12.14955105	     33.86820119	     25.55787159	     45.00000000	    -45.00000000	  -3690.30155944	  -2626.07470501	    158.63704304	     20.75276003	   1798.24518598	    154.39103829	     13.52030182	     14.90955468	     -6.25475449	    -45.00000000	    -40.07437101	     45.00000000	    -45.00000000	  -4932.86749964	   -641.36491068	     24.93793260	     24.37070456	   1070.53877371	     39.49358264	     13.40761035	    -20.41658934
